<svg id="Layer_1" data-name="Layer 1" xmlns="http://www.w3.org/2000/svg" xmlns:xlink="http://www.w3.org/1999/xlink" viewBox="0 0 1191 286.901"><defs><style>.cls-1{fill:#ccc;}.cls-2{fill:#030303;}.cls-3{fill:url(#linear-gradient);}.cls-4{fill:url(#linear-gradient-2);}.cls-5{fill:url(#linear-gradient-3);}.cls-6{fill:url(#linear-gradient-4);}.cls-7{fill:url(#linear-gradient-5);}.cls-8{fill:url(#linear-gradient-6);}.cls-9{fill:url(#linear-gradient-7);}.cls-10{fill:url(#linear-gradient-8);}.cls-11{fill:url(#linear-gradient-9);}.cls-12{fill:#29282a;}.cls-13{opacity:0.5;}.cls-14{fill:#5a5558;}.cls-15{fill:#e0dbd6;}</style><linearGradient id="linear-gradient" x1="115.46" y1="1407.7479" x2="115.46" y2="1269.8009" gradientTransform="translate(-6 -1261.0495)" gradientUnits="userSpaceOnUse"><stop offset="0" stop-color="#d9cdca"/><stop offset="1" stop-color="#a89f9c"/></linearGradient><linearGradient id="linear-gradient-2" x1="239.6484" y1="1408.0186" x2="239.6484" y2="1270.0715" xlink:href="#linear-gradient"/><linearGradient id="linear-gradient-3" x1="344.4169" y1="1407.6577" x2="344.4169" y2="1269.6204" xlink:href="#linear-gradient"/><linearGradient id="linear-gradient-4" x1="483.7398" y1="1407.6126" x2="483.7398" y2="1269.4851" xlink:href="#linear-gradient"/><linearGradient id="linear-gradient-5" x1="1128.0491" y1="1407.2968" x2="1128.0491" y2="1268.8536" gradientTransform="translate(0 -1230)" xlink:href="#linear-gradient"/><linearGradient id="linear-gradient-6" x1="1006.274" y1="1407.4322" x2="1006.274" y2="1268.9889" xlink:href="#linear-gradient"/><linearGradient id="linear-gradient-7" x1="881.8826" y1="1407.5224" x2="881.8826" y2="1269.2144" gradientTransform="translate(0 -1230)" xlink:href="#linear-gradient"/><linearGradient id="linear-gradient-8" x1="750.3412" y1="1407.4773" x2="750.3412" y2="1269.1694" gradientTransform="translate(0 -1230)" xlink:href="#linear-gradient"/><linearGradient id="linear-gradient-9" x1="616.815" y1="1407.5675" x2="616.815" y2="1269.3498" xlink:href="#linear-gradient"/></defs><path class="cls-1" d="M135.8272,317.77V300.7184H124.4594V317.77H107.4078V306.4023h-5.6839V260.9312h17.0517v28.4194h5.6838V277.9828h11.3678v11.3678h5.5035V260.9312h17.0967v45.4711h-5.5485V317.77Z" transform="translate(-6 -31.0495)"/><path class="cls-1" d="M166.6826,317.77V260.9312h17.0517V317.77Z" transform="translate(-6 -31.0495)"/><path class="cls-1" d="M203.2219,317.77V272.299H191.8541V260.9312h39.697V272.299H220.2735V317.77Z" transform="translate(-6 -31.0495)"/><path class="cls-1" d="M262.4967,317.77V295.2149h-5.6839V317.77H239.7612V260.9312h17.0516v22.5551h5.6839V260.9312h17.0517V317.77Z" transform="translate(-6 -31.0495)"/><path class="cls-1" d="M326.6435,317.77V295.2149H320.96V317.77H303.7275V260.9312h39.7872v22.5551h-5.5035V289.17h5.6839V317.59Zm0-45.4712H320.96v11.3678h5.6839Z" transform="translate(-6 -31.0495)"/><path class="cls-1" d="M363.1827,317.77V272.299H351.815V260.9312h39.7872V272.299H380.4148V317.77Z" transform="translate(-6 -31.0495)"/><path class="cls-1" d="M422.4576,317.77V300.7184h-5.6839V317.77H399.722v-28.42H411.09v-5.6839H399.722V261.1116h17.0517v17.0517h5.6839V260.9312h17.0516v22.5551H428.1415V289.17h11.3677V317.59Z" transform="translate(-6 -31.0495)"/><path class="cls-1" d="M496.3481,317.77V260.9312h39.7872V272.299H513.58v11.3677h17.0516v11.3678H513.58V317.59Z" transform="translate(-6 -31.0495)"/><path class="cls-1" d="M544.2552,317.77V260.9312h39.7872V317.77ZM566.81,272.2989h-5.5035v34.1034h5.6839Z" transform="translate(-6 -31.0495)"/><path class="cls-1" d="M614.988,317.77V295.2149h-5.6839V317.77H592.2525V260.9312H632.04v22.5551h-5.7741V289.17h5.6839V317.59Zm0-45.4712h-5.6839v11.3678h5.6839Z" transform="translate(-6 -31.0495)"/><path class="cls-1" d="M690.4123,317.77V300.7184H679.0445V317.77H661.9928V306.4023H656.309V260.9312h17.0516v28.4194h5.6839V277.9828h11.3678v11.3678h5.7741V260.9312H713.238v45.4711h-5.7741V317.77Z" transform="translate(-6 -31.0495)"/><path class="cls-1" d="M721.2676,317.77V260.9312h17.0517V317.77Z" transform="translate(-6 -31.0495)"/><path class="cls-1" d="M774.8586,317.77V306.4023h-5.6838V295.0345h-5.6839V317.59H746.4392V260.9312h17.0517V272.299h5.6839v11.3677h5.6838V261.1116H791.91v56.8389Z" transform="translate(-6 -31.0495)"/><path class="cls-1" d="M799.94,317.77V260.9312h34.1033v5.6839h5.6839v45.4711h-5.6839V317.77Zm22.5551-45.4712h-5.4132v34.1034h5.6838Z" transform="translate(-6 -31.0495)"/><path class="cls-1" d="M847.9372,317.77V260.9312h39.7871V317.77Zm22.5551-45.4712h-5.6839v34.1034h5.6839Z" transform="translate(-6 -31.0495)"/><path class="cls-1" d="M929.9476,317.77V300.7184H918.58V317.77H901.5281V306.4023h-5.6838V260.9312h16.8711v28.4194h5.6839V277.9828h11.3678v11.3678h5.6839V260.9312h17.0516v45.4711h-5.5034V317.77Z" transform="translate(-6 -31.0495)"/><path class="cls-1" d="M960.8029,317.77V306.4023h22.5552V295.0345H960.8029V260.9312H1000.59V272.299H978.0351v11.3677H1000.59V317.77Z" transform="translate(-6 -31.0495)"/><path class="cls-1" d="M1036.3174,317.77V277.9828H1024.95V266.6151h11.3678v-5.6839h17.0517V317.77Z" transform="translate(-6 -31.0495)"/><path class="cls-1" d="M1061.5792,317.77V260.9312h39.7872V317.77Zm22.5551-45.4712H1078.45v34.1034h5.6839Z" transform="translate(-6 -31.0495)"/><path class="cls-1" d="M454.3054,262.6454v14.5255h-1.7142V262.6454H448.08v-1.5338h11.0069v1.5338Z" transform="translate(-6 -31.0495)"/><path class="cls-1" d="M474.0185,277.1709V265.1264l-4.511,9.6987H468.064l-4.511-9.6987v12.2249h-1.7142v-16.24h1.7142l5.2328,11.4129,5.0974-11.4129h1.7142v16.0593Z" transform="translate(-6 -31.0495)"/><polygon class="cls-2" points="51.155 197.402 0 150.082 48.133 0.632 104.43 0.541 131.677 37.802 134.699 26.48 150.352 26.435 157.074 0.496 214.95 0.451 218.379 6.451 219.732 0.451 278.059 0.406 281.172 6.767 282.39 0.406 341.304 0.316 351.77 26.615 353.078 26.75 355.784 33.652 360.521 0.316 420.247 0.271 422.457 7.985 423.269 0.271 547.097 0.135 553.142 56.298 551.878 89.228 549.127 89.228 551.202 106.55 549.848 141.736 546.601 141.736 549.127 160.412 547.728 197.312 424.893 197.357 422.277 190.185 421.555 197.357 362.506 197.357 347.484 166.096 342.973 197.357 284.691 197.357 281.037 191.538 279.999 197.357 222.258 197.357 218.243 191.989 217.07 197.357 159.826 197.402 135.015 168.893 120.083 168.893 115.753 164.066 106.911 197.402 51.155 197.402"/><path class="cls-2" d="M743.5521,219.61l-1.8946,8.7514H680.894L676.1574,87.2568,681.2549,31.05H805.4885l.8119,8.03,2.1653-8.03H931.4813l1.1278,6.6763,3.0223-6.6763H1057.429l1.4436,5.8643,3.6991-5.8643h121.2112l11.2774,35.592-24.0437,28.9156.2707.9022q2.526,8.5258,5.1426,17.187l7.9844,26.0286,4.5111,14.0293c1.1729,3.7893,2.3006,7.6687,3.4734,11.5031s2.2555,7.759,3.3381,11.5933L1197,181.3117l-47.7266,47.0048h-57.2l-22.5552-92.25-26.3443,36.5393h-18.6756l1.6239,7.6687-33.6973,48.0424H934.0075l-.9925-6.09-3.5186,6.09H870.8532l-.9022-6.6763-3.0675,6.6763H807.4282l-.7669-7.4883-2.5261,7.4883H744.1386Z" transform="translate(-6 -31.0495)"/><polygon class="cls-2" points="543.668 148.277 548.811 0.135 673.676 0 674.668 34.148 670.518 89.183 612.055 89.228 611.424 109.618 676.879 109.573 678.052 148.142 673.315 197.312 549.488 197.312 543.668 148.277"/><polygon class="cls-3" points="107.001 34.464 99.197 61.621 133.752 61.621 141.015 34.78 156.803 34.78 163.479 8.796 208.996 8.751 176.922 146.653 127.842 146.653 142.548 88.1 124.865 88.1 117.196 116.61 85.439 116.61 93.333 88.055 75.379 88.1 58.102 146.698 9.924 146.698 54.177 8.887 98.836 8.887 91.438 33.878 107.001 34.464"/><polygon class="cls-4" points="271.744 9.022 244.633 146.969 195.553 146.969 226.228 9.067 271.744 9.022"/><polygon class="cls-5" points="338.101 102.22 342.161 73.71 324.388 73.394 312.659 146.608 263.534 146.608 289.247 8.661 334.808 8.616 330.793 34.194 346.401 34.554 342.702 61.26 360.25 61.485 367.739 8.616 413.3 8.571 397.331 146.563 348.161 146.608 354.296 102.626 338.101 102.22"/><polygon class="cls-6" points="534.556 118.144 533.293 146.518 416.142 146.563 430.712 8.526 539.338 8.436 538.3 32.885 474.379 32.93 472.349 61.079 537.037 61.26 535.864 87.92 470.003 87.965 467.748 117.873 534.556 118.144"/><path class="cls-7" d="M1177.8733,38.8536l7.8041,24.4948H1154.1v.7669c1.3081,5.323,2.7517,10.7813,4.24,16.33s3.1578,11.2775,4.8269,17.0517,3.4734,11.5933,5.2328,17.4576l5.4583,17.7734c1.0826,3.6089,2.21,7.2177,3.2931,10.8716l3.4284,11.1422c1.1277,3.7442,2.2555,7.5334,3.3381,11.2776l3.2931,11.2775H1137.59L1106.6894,63.4386h-31.5772l-6.2252-24.4948Z" transform="translate(-6 -31.0495)"/><polygon class="cls-8" points="1057.88 60.222 1064.646 87.604 998.379 87.649 1010.649 146.383 961.254 146.383 935.902 8.03 1045.068 7.939 1051.113 32.434 986.831 32.479 992.65 60.177 1057.88 60.222"/><path class="cls-9" d="M873.9658,132.8182l6.09,44.6591H830.7051L815.4127,39.2144H924.399l23.9535,138.308h-49.17l-6.4508-44.614Zm32.0283-54.1323-2.7969-17.593H881.6346l1.9848,16.0592H866.658l-2.1653-15.969h-20.886L845.772,78.731h19.1718l.9022,6.4959h-9.6536l3.5186,27.0661h11.5934l-.8571-9.022h17.1418l1.4436,9.2476h11.7287l-4.15-27.0662H887.093l-.8571-6.541h19.7583" transform="translate(-6 -31.0495)"/><path class="cls-10" d="M788.3465,105.8874h16.1044l7.2177,71.59h-49.17l-4.511-58.2824-18.0441-.4511,3.7892,58.6433H694.3368L689.0139,39.5753H797.91l5.1877,51.29h-16.24ZM756.1378,92.3543l-2.12-28.4194H736.2894l1.85,28.4194H756.183" transform="translate(-6 -31.0495)"/><polygon class="cls-11" points="603.124 32.795 666.278 32.75 665.556 8.3 556.795 8.436 552.149 146.518 669.481 146.473 668.714 118.099 601.59 118.144 603.124 32.795"/><path class="cls-12" d="M22.6908,177.7479c-3.6991,0-4.511,2.12-1.8946,4.5111L55.26,215.5052a19.3522,19.3522,0,0,0,11.6384,4.511H96.9873c3.6991,0,4.511-2.21,2.12-4.917L68.7032,182.665a18.0444,18.0444,0,0,0-11.3678-4.9171Z" transform="translate(-6 -31.0495)"/><path class="cls-12" d="M140.6089,177.7028c-3.699,0-4.7817,2.3458-2.3908,5.1877l26.8405,32.0283a16.3755,16.3755,0,0,0,11.052,5.0974h31.5772c3.699,0,4.917-2.4359,2.7066-5.4132L186.892,183.0258a15.2026,15.2026,0,0,0-10.7814-5.4132Z" transform="translate(-6 -31.0495)"/><path class="cls-12" d="M98.16,147.84c-3.6991,0-4.7366,2.3006-2.2555,5.0523L125.8128,186.68a14.5259,14.5259,0,0,0,9.7438,4.7817c2.887,0,3.5186-2.7067,1.3533-5.7741l-1.7593-2.4811a16.3748,16.3748,0,0,1-2.0751-12.0444l.406-1.4887a15.0664,15.0664,0,0,0-2.3909-11.8188l-3.699-4.5111A15.7884,15.7884,0,0,0,116.43,147.84Z" transform="translate(-6 -31.0495)"/><path class="cls-12" d="M208.3193,178.0186c-3.699,0-4.9621,2.4811-2.7517,5.4583l22.9611,31.1712a14.9765,14.9765,0,0,0,10.7362,5.3681h31.081c3.7441,0,5.1425-2.5713,3.1577-5.729L254.1062,183.928a13.5333,13.5333,0,0,0-10.3753-5.729Z" transform="translate(-6 -31.0495)"/><path class="cls-12" d="M276.3,177.6577c-3.7441,0-5.1876,2.6164-3.2479,5.7741l18.5854,30.4043a13.5331,13.5331,0,0,0,10.24,5.7741h30.63a3.88,3.88,0,0,0,4.4945-3.1464q.0088-.0507.0165-.1015a3.97,3.97,0,0,0-.6767-2.842L321.7715,183.928a11.9087,11.9087,0,0,0-9.7438-6.0447Z" transform="translate(-6 -31.0495)"/><path class="cls-12" d="M360.9272,177.6577a3.97,3.97,0,0,0-4.511,3.1577,4.06,4.06,0,0,0,.7218,3.1126l13.9841,30.2239a11.5033,11.5033,0,0,0,9.2927,5.8643H411.992a4.511,4.511,0,0,0,4.9137-4.0686l.0033-.0364a4.8718,4.8718,0,0,0-.406-2.2555L405.6765,183.928a10.4654,10.4654,0,0,0-9.022-6.3605Z" transform="translate(-6 -31.0495)"/><path class="cls-12" d="M428.8632,177.6126a4.5109,4.5109,0,0,0-4.9137,4.0687l-.0033.0363a4.8715,4.8715,0,0,0,.406,2.2555l10.1949,28.78a10.3753,10.3753,0,0,0,9.022,6.3605h94.7315a5.7291,5.7291,0,0,0,5.9093-5.5429l0-.0056a9.5146,9.5146,0,0,0,0-1.1278l-4.0148-28.1939a7.9393,7.9393,0,0,0-7.6687-6.6763Z" transform="translate(-6 -31.0495)"/><path class="cls-12" d="M564.9156,177.5675a5.9546,5.9546,0,0,0-6.09,5.8162v.003a6.0378,6.0378,0,0,0,0,.9022l3.1126,29.0961a7.7589,7.7589,0,0,0,7.5334,6.6312H663.707a7.7588,7.7588,0,0,0,7.5334-6.7214l3.4735-29.1412a5.9093,5.9093,0,0,0-5.0308-6.6733l-.0215-.003h-.9022Z" transform="translate(-6 -31.0495)"/><path class="cls-12" d="M701.0583,177.5224a7.8492,7.8492,0,0,0-7.5785,6.7214l-3.6539,28.645a5.9094,5.9094,0,0,0,4.9621,6.6763h32.0734a9.022,9.022,0,0,0,8.3-6.5861l6.9018-29.051a5.0524,5.0524,0,0,0-3.4735-6.2252,4.9172,4.9172,0,0,0-1.8044,0Z" transform="translate(-6 -31.0495)"/><path class="cls-12" d="M769.2649,177.5224a9.0219,9.0219,0,0,0-8.3,6.4056l-6.7666,28.4646a5.1877,5.1877,0,0,0,3.2931,6.4959,5.1009,5.1009,0,0,0,1.8495,0h31.126a10.24,10.24,0,0,0,9.0221-6.4057l10.1047-28.87a4.5111,4.5111,0,0,0-2.2555-5.9546,3.88,3.88,0,0,0-2.2556-.406Z" transform="translate(-6 -31.0495)"/><path class="cls-12" d="M837.4265,177.4773a10.24,10.24,0,0,0-9.0221,6.36L817.984,213.25a4.5109,4.5109,0,0,0,2.2555,5.9545,3.8793,3.8793,0,0,0,2.2555.406h31.0809a11.5482,11.5482,0,0,0,9.5183-6.135l13.9842-29.9081a4.0147,4.0147,0,0,0-1.1728-5.5034,4.06,4.06,0,0,0-2.7067-.5864Z" transform="translate(-6 -31.0495)"/><path class="cls-12" d="M905.6783,177.4773a11.8187,11.8187,0,0,0-9.6987,6.0447L881.3638,213.52a3.9247,3.9247,0,0,0,1.0307,5.4537l.0069.0047a3.9694,3.9694,0,0,0,2.7517.6315h32.0734a12.992,12.992,0,0,0,10.1047-5.8643l17.5929-30.4494c1.85-3.2028.3158-5.8643-3.3832-5.8643Z" transform="translate(-6 -31.0495)"/><path class="cls-12" d="M973.9751,177.4322a13.5328,13.5328,0,0,0-10.24,5.7741l-18.6756,30.63c-1.94,3.1577-.4512,5.7741,3.2479,5.7741h31.5772a14.7964,14.7964,0,0,0,10.6911-5.5034l22.1942-31.1712c2.12-3.0224.8571-5.5034-2.842-5.5034Z" transform="translate(-6 -31.0495)"/><path class="cls-12" d="M1144.4918,177.3871a17.0513,17.0513,0,0,0-11.2325,5.0523l-27.8781,31.5771c-2.4811,2.7518-1.4435,5.0524,2.2555,5.0524h30.0885a19.2171,19.2171,0,0,0,11.5934-4.511l33.1109-32.299c2.6615-2.6164,1.8044-4.7365-1.8947-4.7365Z" transform="translate(-6 -31.0495)"/><polygon class="cls-2" points="45.426 33.472 92.025 33.652 92.205 30.224 46.644 30.224 45.426 33.472"/><polygon class="cls-2" points="45.697 95.859 24.585 95.859 24.585 98.836 41.547 98.836 29.998 133.932 68.162 133.932 68.162 130.91 34.148 130.91 38.795 116.881 71.184 116.881 71.184 113.903 39.742 113.903 45.697 95.859"/><polygon class="cls-2" points="179.133 31.352 156.487 31.397 155.314 34.374 175.704 34.374 172.592 57.245 128.79 57.245 128.79 60.267 172.186 60.267 173.9 60.267 202.455 60.267 202.455 57.245 175.614 57.245 179.133 31.352"/><polygon class="cls-2" points="221.852 123.467 217.747 130.053 214.409 147.826 223.25 160.818 230.152 165.961 217.567 147.104 221.852 123.467"/><polygon class="cls-2" points="269.082 35.231 243.55 35.727 250.091 38.208 269.082 38.208 269.082 35.231"/><polygon class="cls-2" points="289.157 130.82 284.691 137.586 282.57 146.563 286.721 157.525 291.412 163.479 285.728 146.338 289.157 130.82"/><polygon class="cls-2" points="269.173 101.859 269.037 104.881 317.847 107.317 321.952 113.723 324.478 112.054 319.561 104.43 269.173 101.859"/><polygon class="cls-2" points="316.223 33.652 331.831 33.652 331.831 30.675 311.17 30.224 316.223 33.652"/><polygon class="cls-2" points="350.236 103.348 350.326 106.37 384.114 104.926 377.798 146.563 382.399 161.946 387.813 169.524 380.866 146.338 387.632 101.769 350.236 103.348"/><path class="cls-2" d="M369.5433,63.7544a484.8937,484.8937,0,0,0,48.3581,6.0448V66.6415c-12.2249,0-47.501-5.8193-47.8619-5.8644Z" transform="translate(-6 -31.0495)"/><polygon class="cls-2" points="441.539 115.392 415.916 115.392 415.916 118.414 438.426 118.414 437.479 146.112 443.027 167.9 447.178 175.343 440.456 145.796 441.539 115.392"/><polygon class="cls-2" points="423.45 50.253 448.486 50.253 454.982 46.734 423.45 47.23 423.45 50.253"/><polygon class="cls-2" points="506.137 57.741 503.114 57.741 503.114 85.303 506.633 77.815 506.137 57.741"/><polygon class="cls-2" points="520.707 125.406 498.107 125.406 498.107 147.962 501.084 147.962 501.084 128.429 523.594 128.429 524.136 112.46 521.158 112.324 520.707 125.406"/><polygon class="cls-2" points="642.911 128.068 644.941 146.924 638.941 190.365 642.595 190.185 647.918 146.969 645.437 123.286 642.911 128.068"/><rect class="cls-2" x="553.728" y="171.5091" width="14.5255" height="3.0224"/><path class="cls-2" d="M574.3888,85.3171a109.8431,109.8431,0,0,1,36.99,8.3905l1.1729-2.7517a169.5714,169.5714,0,0,0-44.1629-8.6612Z" transform="translate(-6 -31.0495)"/><polygon class="cls-2" points="567.261 78.808 553.232 79.304 553.232 82.326 562.254 82.326 567.261 78.808"/><path class="cls-2" d="M711.2081,88.8357h15.6983a5.0075,5.0075,0,0,1,2.8871,2.2555l2.6164-1.5337a7.8942,7.8942,0,0,0-5.0073-3.6991H713.87l-5.3682-48.2679-2.9772.3158,4.511,40.9149H687.1643v3.0224h23.4573Z" transform="translate(-6 -31.0495)"/><path class="cls-2" d="M706.9677,162.32c-4.511,1.9849-6.7214,11.6836-7.3981,14.8864l2.9322.6315c1.3081-6.09,4.105-12.8564,6.0447-12.8564h1.624l-2.03-29.051h36.99v-3.0223H704.9377Z" transform="translate(-6 -31.0495)"/><polygon class="cls-2" points="751.175 113.903 780.226 113.903 785.73 110.881 751.175 110.881 751.175 113.903"/><polygon class="cls-2" points="766.693 71.274 784.241 71.274 784.241 68.297 763.445 68.613 766.693 71.274"/><rect class="cls-2" x="711.2673" y="183.9686" width="3.0224" height="48.719" transform="matrix(0.0722, -0.9974, 0.9974, 0.0722, 447.5358, 873.1571)"/><path class="cls-2" d="M890.9272,142.4266v3.0224c.406,0,41.0052-.4511,56.5682,5.4132l1.3082-3.0223C932.4737,142.0206,892.5962,142.4266,890.9272,142.4266Z" transform="translate(-6 -31.0495)"/><path class="cls-2" d="M1032.3478,87.3019c7.1725,20.6154,1.6239,32.299,1.5788,32.4343l2.6615,1.3082c.2707-.4962,6.2253-12.8113-1.3984-34.7349Z" transform="translate(-6 -31.0495)"/><polygon class="cls-2" points="998.785 18.179 995.131 6.225 992.244 7.082 996.575 21.202 1008.123 21.202 1013.807 37.712 1016.649 36.72 1010.289 18.179 998.785 18.179"/><rect class="cls-2" x="1116.9742" y="105.3775" width="54.1322" height="3.0224"/><polygon class="cls-2" points="1155.995 34.329 1148.461 6.767 1145.574 7.533 1153.062 35.096 1155.995 34.329"/><path class="cls-2" d="M160.5927,64.8822h13.1722c3.6991,0,3.7893-.5865,0-1.3082l-4.06-.7669c-3.6088-.7218-6.4508,0-6.2252,1.3082Z" transform="translate(-6 -31.0495)"/><path class="cls-2" d="M85.1684,198.3182a12.27,12.27,0,0,0-9.022-1.94l-7.3079,1.0826c-3.699.4511-3.699,1.1729,0,1.624l12.1347,1.3984C84.6722,200.709,86.5669,199.8068,85.1684,198.3182Z" transform="translate(-6 -31.0495)"/><path class="cls-2" d="M212.695,214.8285a10.6009,10.6009,0,0,0-8.4807-2.1653L188.11,214.0165c-3.6991.3158-3.6991.8571,0,1.1729l19.6229,1.8044C211.4319,217.31,213.507,216.3623,212.695,214.8285Z" transform="translate(-6 -31.0495)"/><path class="cls-2" d="M366.8818,208.5582c-.406-1.3533,2.3006-2.3908,6-2.3006H376.4c3.7442,0,3.8344,1.0375.2707,2.0751l-2.5713.7217C370.7161,210.2273,367.4682,209.9566,366.8818,208.5582Z" transform="translate(-6 -31.0495)"/><path class="cls-2" d="M543.6687,198.8144c-.2706-2.0751-3.4734-3.3382-7.1725-2.7968l-11.1873,1.5788c-3.6539.5413-3.6539,1.4436,0,1.9849l12.18,1.94C541.1877,201.9721,543.9394,200.89,543.6687,198.8144Z" transform="translate(-6 -31.0495)"/><path class="cls-2" d="M558.4649,205.9869c0-2.075,2.6164-3.4283,6.27-3.0223s3.8344,2.075.4511,3.699h-.3158C561.5324,208.4229,558.6453,208.0169,558.4649,205.9869Z" transform="translate(-6 -31.0495)"/><path class="cls-2" d="M446.7268,171.4776c-.4059-3.0224-1.2179-3.2479-1.7593-.4962a29.1409,29.1409,0,0,0,.9474,11.5031l.6315,2.0751c1.0375,3.5637,1.7142,3.4283,1.4435-.2707v-.3609C447.7193,180.0486,447.1329,174.5451,446.7268,171.4776Z" transform="translate(-6 -31.0495)"/><path class="cls-2" d="M505.37,173.7331c-.7217-1.218-1.1728.812-1.0375,4.511v1.1729c0,3.6991.6766,4.511,1.2179,1.7142A13.533,13.533,0,0,0,505.37,173.7331Z" transform="translate(-6 -31.0495)"/><path class="cls-2" d="M386.5949,172.5151c0-3.0674-.7217-3.0674-1.263,0a28.7352,28.7352,0,0,0,1.1277,11.9092l.7669,2.21c1.1729,3.5186,1.624,3.4283.9924-.2707l-.2706-1.7142C387.3618,180.9959,386.73,175.5375,386.5949,172.5151Z" transform="translate(-6 -31.0495)"/><path class="cls-2" d="M291.1417,174.906c-.5413-1.2631-1.4435-1.0375-2.03.4962a8.6165,8.6165,0,0,0,1.0827,6.135c1.2631,1.8946,2.1653,1.6691,2.03-.5413A23.3211,23.3211,0,0,0,291.1417,174.906Z" transform="translate(-6 -31.0495)"/><path class="cls-2" d="M224.5139,172.6054c-.7218-3.0224-1.94-2.6615-2.7968.7668a12.8565,12.8565,0,0,0,3.0224,10.7814c2.481,2.481,3.699,2.12,2.7517-.7669S225.1906,175.6729,224.5139,172.6054Z" transform="translate(-6 -31.0495)"/><path class="cls-2" d="M104.4756,168.23c-.9473-1.218,1.2631-1.9849,4.9621-1.6691l9.6085.8571c3.6991.3158,3.6991.9473,0,1.4435l-6.135.7669A11.3227,11.3227,0,0,1,104.4756,168.23Z" transform="translate(-6 -31.0495)"/><path class="cls-2" d="M651.0762,170.6656c.4962-3.699,1.5788-3.699,2.3457,0v.812a33.8339,33.8339,0,0,1-.3158,13.1271l-1.0375,4.0148c-.9474,3.5637-1.8495,3.4735-1.94,0V184.83a90.2329,90.2329,0,0,1,.7668-13.533Z" transform="translate(-6 -31.0495)"/><path class="cls-2" d="M610.8378,93.0761c0,1.5337-2.5261,1.0375-5.5936-1.0376l-1.3534-.9473c-3.0674-2.0751-2.7517-3.1126.6767-2.2555S610.8378,91.5423,610.8378,93.0761Z" transform="translate(-6 -31.0495)"/><path class="cls-2" d="M806.526,195.0251c.406-1.3533-2.3006-2.3908-6-2.3006h-4.06c-3.699,0-3.8343.9925,0,2.03l3.0224.812C802.8269,196.7393,806.12,196.4236,806.526,195.0251Z" transform="translate(-6 -31.0495)"/><path class="cls-2" d="M781.4447,173.7331c-.9474-2.075-1.624-.7217-1.4887,3.0224h0c0,3.7442.9022,5.4132,1.7593,3.7442A9.0227,9.0227,0,0,0,781.4447,173.7331Z" transform="translate(-6 -31.0495)"/><path class="cls-2" d="M870.402,201.2955c.5413-1.4887-2.03-2.4811-5.729-2.21l-11.5933.9473c-3.6991.2706-3.7442.9924,0,1.5337l9.6986,1.4887C866.3872,203.5961,869.8607,202.8292,870.402,201.2955Z" transform="translate(-6 -31.0495)"/><path class="cls-2" d="M857.8614,174.5c-.5413-1.6691-1.3082-1.7593-1.7593-.2255a20.8885,20.8885,0,0,0,.2706,7.4882c.5413,2.6165,1.3534,2.7518,1.7593.2707A19.2627,19.2627,0,0,0,857.8614,174.5Z" transform="translate(-6 -31.0495)"/><path class="cls-2" d="M1035.5055,121.1346c-1.218-.406-1.1278-3.3381.2706-6.4959s2.3909-2.8419,2.2555.7218S1036.7685,121.5406,1035.5055,121.1346Z" transform="translate(-6 -31.0495)"/><path class="cls-2" d="M951.33,197.822a10.9164,10.9164,0,0,1,9.022-1.7593l16.6908,2.4811c3.6991.5413,3.6539,1.0826,0,1.2179l-21.1116.5865C952.0966,200.4835,950.0667,199.3106,951.33,197.822Z" transform="translate(-6 -31.0495)"/><path class="cls-2" d="M1115.7114,197.822a10.24,10.24,0,0,1,9.383-2.4811l15.3374,2.9322c3.6539.7218,3.6088,1.4435,0,1.6691l-20.57,1.218C1115.9821,201.3857,1114.1777,199.8519,1115.7114,197.822Z" transform="translate(-6 -31.0495)"/><path class="cls-2" d="M1122.2073,137.69c-.6766-2.3458,1.7593-3.8344,5.4132-3.2931l13.5331,2.03c3.6539.5413,3.6991,1.5337,0,2.21l-11.2776,2.075C1126.4477,141.3891,1122.8839,139.9907,1122.2073,137.69Z" transform="translate(-6 -31.0495)"/><g class="cls-13"><path class="cls-2" d="M1105.4263,67.9948a15.1574,15.1574,0,0,1-2.2555-8.4808h0c0-3.699.4962-3.7892,1.4886,0l1.0376,4.0149C1106.6894,66.6415,1106.6894,68.9872,1105.4263,67.9948Z" transform="translate(-6 -31.0495)"/></g><path class="cls-2" d="M946.0519,151.9449l-8.7514-3.4735c-3.4735-1.3984-3.2479-2.2555.4511-1.8946l9.2927.8571" transform="translate(-6 -31.0495)"/><g class="cls-13"><path class="cls-2" d="M602.0414,180.9959a10.8274,10.8274,0,0,0,0-6.7666c-.6767-1.7593-4.2855-3.2479-7.9846-3.2479h-3.0223a11.5933,11.5933,0,0,0-9.0221,3.7893c-1.2179,2.03.6767,4.511,4.24,5.5936l8.0747,2.3006C597.8912,183.928,601.4549,182.9356,602.0414,180.9959Z" transform="translate(-6 -31.0495)"/></g><path class="cls-2" d="M596.0417,175.9886c-2.3457-2.481-2.21-4.511.2707-4.511a9.9691,9.9691,0,0,1,6.7665,2.7969c1.218,1.4886.6315,5.323-1.3533,8.4807l-.3609.5413c-1.94,3.1577-2.9773,3.8344-2.3006,1.4886A10.6011,10.6011,0,0,0,596.0417,175.9886Z" transform="translate(-6 -31.0495)"/><path class="cls-2" d="M369.3177,63.2582c.2707-1.94,3.4284-2.7517,7.0372-1.8495h.9473c3.5637.9022,3.5637,2.3006,0,3.1577l-1.8946.4511C371.7537,66.055,369.0471,65.1979,369.3177,63.2582Z" transform="translate(-6 -31.0495)"/><path class="cls-2" d="M207.1916,90.55c-.6767,1.2631-4.1953,1.5788-7.8041.6766l-1.3984-.3157c-3.6088-.9022-3.5186-1.7593,0-1.9849h3.5637C205.4323,88.4748,207.8682,89.1966,207.1916,90.55Z" transform="translate(-6 -31.0495)"/><path class="cls-2" d="M76.6877,145.9452c.5413-1.669-1.9848-2.4359-5.6388-1.7142l-4.7816.9023c-3.654.7217-3.6089,1.7593,0,2.3457l2.887.3609C72.6729,148.4714,76.1013,147.84,76.6877,145.9452Z" transform="translate(-6 -31.0495)"/><path class="cls-12" d="M86.7022,198.8144a11.3227,11.3227,0,0,1,0-8.7514l1.1728-4.06c1.0376-3.5637,1.7593-3.4735,1.5789,0l-.4511,8.3C88.8224,198.0475,87.7848,200.0324,86.7022,198.8144Z" transform="translate(-6 -31.0495)"/><path class="cls-12" d="M211.9733,215.5052c-1.1278-.6767-1.1278-3.7442,0-6.7665s1.9848-2.436,1.9848,1.263h0C213.9581,213.5655,213.0559,216.0465,211.9733,215.5052Z" transform="translate(-6 -31.0495)"/><path class="cls-12" d="M324.9744,139.9456c0-2.21.8571-1.218,2.21,2.2555l.5864,1.4435c1.3533,3.4735,1.3082,4.9621,0,3.2931A14.1644,14.1644,0,0,1,324.9744,139.9456Z" transform="translate(-6 -31.0495)"/><path class="cls-12" d="M952.8184,199.8068c1.2631-.9473,1.4436-4.511.406-8.2551l-1.3082-4.5111c-.9924-3.5637-1.7593-3.4283-1.669.2707v7.5334C950.5178,198.5438,951.6,200.7541,952.8184,199.8068Z" transform="translate(-6 -31.0495)"/><path class="cls-12" d="M1118.1925,198.8144c1.8044-.9924,1.9849-4.511.406-7.8943l-6.3606-13.8037c-1.5337-3.3833-2.2555-3.1577-1.5789.4962l3.0224,16.33C1114.3581,197.4611,1116.3881,199.7617,1118.1925,198.8144Z" transform="translate(-6 -31.0495)"/><path class="cls-12" d="M1125.1846,137.4194c-.6766-1.3984-2.5713,0-4.1952,3.5637l-6.5861,13.5331c-1.624,3.3381-1.1729,3.6088.9924.5864l7.0823-9.6536C1124.7335,142.3815,1125.9063,138.8178,1125.1846,137.4194Z" transform="translate(-6 -31.0495)"/><path class="cls-2" d="M1017.732,68.7616l.2707-7.7589c0-3.7442.9924-3.8344,1.8946,0l2.3457,9.022" transform="translate(-6 -31.0495)"/><path class="cls-14" d="M62.884,202.333c-3.1577-.9924-2.9322-1.5337.4962-1.2631s8.5258.812,11.2776,1.2631,2.5261.9473-.4963,1.218A36.5391,36.5391,0,0,1,62.884,202.333Z" transform="translate(-6 -31.0495)"/><path class="cls-14" d="M221.7171,184.7851c-2.6164-2.6164-2.9773-2.3006-.812.7218l2.1653,3.0224a36.81,36.81,0,0,0,7.4432,7.7589c1.94,1.2631,1.8044,0-.2707-2.2555S224.3335,187.4015,221.7171,184.7851Z" transform="translate(-6 -31.0495)"/><path class="cls-14" d="M286.1345,177.5224c-.8571,0-.406,2.3457.9924,5.2328s2.0751,2.887,1.4886,0S286.9464,177.5224,286.1345,177.5224Z" transform="translate(-6 -31.0495)"/><path class="cls-14" d="M378.34,209.5957c-2.7518-.2706-2.03-1.0826,1.6239-1.7141l3.248-.5865c3.6539-.6766,5.1877-.3158,3.3832.7669A15.3819,15.3819,0,0,1,378.34,209.5957Z" transform="translate(-6 -31.0495)"/><path class="cls-14" d="M442.712,182.7552c-1.2179-1.7593-1.6691-.6316-.9924,2.5262a48.4939,48.4939,0,0,0,4.0148,10.7813c1.4887,2.7517,2.03,2.03,1.218-1.5789l-.4511-1.8946A35.275,35.275,0,0,0,442.712,182.7552Z" transform="translate(-6 -31.0495)"/><path class="cls-14" d="M655.5872,188.4391c-.406-2.0751-1.4436-1.7593-2.2555.7217a41.3676,41.3676,0,0,0-1.4887,10.5107c0,3.3382.9474,3.1577,2.12-.3609l.2256-.7218A25.8943,25.8943,0,0,0,655.5872,188.4391Z" transform="translate(-6 -31.0495)"/><path class="cls-14" d="M584.719,174.5c-.7218-2.12-2.3006-1.7593-3.5637.7669a5.9546,5.9546,0,0,0,3.6088,7.4883c3.2028,1.5788,4.8268,1.2179,3.5637-.812A41.9441,41.9441,0,0,1,584.719,174.5Z" transform="translate(-6 -31.0495)"/><path class="cls-14" d="M703.81,210.5882c-3.2028-.812-2.7517-1.4887.9474-1.4887h.4511a47.2746,47.2746,0,0,1,12.5406,1.9849c3.1577,1.0826,2.7067,1.8044-.9924,1.5337h-.5413A81.7856,81.7856,0,0,1,703.81,210.5882Z" transform="translate(-6 -31.0495)"/><path class="cls-14" d="M784.1964,182.7552c-.2707-1.218-1.2631,0-2.2555,2.5262s-.7218,3.6088.4962,2.2555A6.451,6.451,0,0,0,784.1964,182.7552Z" transform="translate(-6 -31.0495)"/><path class="cls-14" d="M861.5605,180.0486c-.2707-1.2631-1.2631,0-2.2555,2.481s-.7218,3.6539.5413,2.2555A6.1356,6.1356,0,0,0,861.5605,180.0486Z" transform="translate(-6 -31.0495)"/><path class="cls-14" d="M849.5611,203.3254c-3.5636-.7217-3.4735-1.5788.2256-1.8946l2.0751-.2255a20.0282,20.0282,0,0,1,10.0145,1.3533c1.7593,1.1277,1.218,2.03-1.2631,2.03A76.049,76.049,0,0,1,849.5611,203.3254Z" transform="translate(-6 -31.0495)"/><path class="cls-14" d="M962.878,203.0548c-3.2029.2706-3.2029-.2707,0-1.2631a39.88,39.88,0,0,1,12.45-1.1729l4.105.3609c3.6991.3158,3.6991.7669,0,.9473l-4.06.2707C971.6745,202.3781,966.0358,202.7841,962.878,203.0548Z" transform="translate(-6 -31.0495)"/><path class="cls-12" d="M1036.2723,122.127a15.1571,15.1571,0,0,0-5.5034,7.2628c-1.3984,3.3381-.6766,3.6088,1.5789.6315l2.8419-3.7441C1037.4452,123.3,1037.8963,121.45,1036.2723,122.127Z" transform="translate(-6 -31.0495)"/><path class="cls-2" d="M1160.8217,67.273c-1.4887,0-3.0224-3.0224-3.3833-6.7214l-.2256-2.12c-.3609-3.699.5865-3.9246,2.12-.5413l1.4887,3.2028C1162.31,64.4762,1162.31,67.273,1160.8217,67.273Z" transform="translate(-6 -31.0495)"/><path class="cls-2" d="M687.1643,81.5278c0-1.7593,2.7968-3.1577,6.4959-3.0223h1.5337c3.6991,0,3.9246,1.3984.4963,2.8419l-2.03.812C690.322,83.648,687.39,83.3322,687.1643,81.5278Z" transform="translate(-6 -31.0495)"/><path class="cls-2" d="M511.2345,88.0688c-1.3533-.6766-2.12,1.7593-1.624,5.4584l.2707,2.12c.4962,3.6991,1.5337,3.7442,2.3908,0S512.4976,88.7455,511.2345,88.0688Z" transform="translate(-6 -31.0495)"/><path class="cls-2" d="M353.3487,136.9232c-.406-1.3984,2.2555-2.5262,6-2.5262h13.0368c3.7442,0,3.7893.6316,0,1.3533l-11.8189,2.3458C357.2733,138.8178,353.9351,138.2765,353.3487,136.9232Z" transform="translate(-6 -31.0495)"/><path class="cls-2" d="M73.6653,164.4855c0-1.0375-2.6615-1.8946-6.4056-1.8946H64.6433c-3.699,0-3.7893.7218,0,1.624l2.3006.5413C70.4625,165.8839,73.6653,165.5231,73.6653,164.4855Z" transform="translate(-6 -31.0495)"/><path class="cls-15" d="M24.27,175.9435c-3.699,0-6.18.6316-5.4583,1.3082a18.044,18.044,0,0,0,7.9845,1.2631H52.3733a15.4276,15.4276,0,0,0,8.03-1.4886c.6767-.8571-1.8044-1.4887-5.5034-1.4436Z" transform="translate(-6 -31.0495)"/><path class="cls-15" d="M143.0448,175.9435c-3.699,0-6.18.6316-5.5034,1.3082a18.0427,18.0427,0,0,0,8.03,1.2631h25.5775a15.2474,15.2474,0,0,0,7.9845-1.4886c.7218-.8571-1.7593-1.4887-5.5034-1.4436Z" transform="translate(-6 -31.0495)"/><path class="cls-15" d="M209.808,175.4022c-3.6991,0-6.541.812-6.3155,1.4887s3.4284,1.263,7.0823,1.263,6.8568-.6766,7.0823-1.5337-2.5712-1.3984-6.3154-1.2631Z" transform="translate(-6 -31.0495)"/><path class="cls-15" d="M90.6719,117.1649c-3.6991,0-6.541.7669-6.3154,1.4435s3.4283,1.2631,7.0823,1.2631,6.8567-.6766,7.0823-1.4886-2.5713-1.3984-6.3155-1.2631Z" transform="translate(-6 -31.0495)"/><path class="cls-15" d="M139.9322,117.1649c-3.7441,0-6.586.7669-6.3154,1.4435s3.3833,1.2631,7.0823,1.2631,6.8568-.6766,7.0823-1.4886-2.6164-1.3984-6.3154-1.2631Z" transform="translate(-6 -31.0495)"/><path class="cls-15" d="M41.4566,125.0141c-3.699,0-6.5861.812-6.3605,1.4886s3.0675,1.2631,6.3605,1.2631,6.18-.6766,6.4057-1.4886-2.6615-1.3984-6.3606-1.2631Z" transform="translate(-6 -31.0495)"/><path class="cls-15" d="M100.4608,145.043c-3.699,0-6.4056.7218-5.9545,1.3984a14.8857,14.8857,0,0,0,7.5334,1.2631h11.1422c3.699,0,7.1274-.6766,7.5334-1.5337s-2.2555-1.4435-5.9546-1.3533Z" transform="translate(-6 -31.0495)"/><path class="cls-15" d="M73.3947,59.3787c-3.6991,0-6.4057.6767-5.9546,1.3533A14.5253,14.5253,0,0,0,74.9735,62.13H86.1158a12.4954,12.4954,0,0,0,7.5334-1.4886c.4511-.812-2.21-1.4435-5.9546-1.3984Z" transform="translate(-6 -31.0495)"/><path class="cls-15" d="M278.1951,175.4022c-3.6991,0-6.541.812-6.3155,1.4887s3.4284,1.263,7.1275,1.263,6.8116-.6766,7.0823-1.5337-2.6164-1.3984-6.3606-1.2631Z" transform="translate(-6 -31.0495)"/><path class="cls-15" d="M395.0757,175.3571c-3.6991,0-6.541.8571-6.3606,1.5337s3.1126,1.2631,6.4056,1.2631,6.18-.6766,6.3606-1.5337-2.6164-1.3985-6.3606-1.2631Z" transform="translate(-6 -31.0495)"/><path class="cls-15" d="M300.0284,175.4924c-3.7441,0-6.4507.7218-6.09,1.3985a14.2545,14.2545,0,0,0,7.4884,1.263h8.12c3.7442,0,7.0823-.6766,7.4432-1.5337s-2.3457-1.4435-6.0447-1.3533Z" transform="translate(-6 -31.0495)"/><path class="cls-15" d="M362.01,175.4924c-3.6991,0-6.4057.7218-5.9546,1.3985a14.2541,14.2541,0,0,0,7.4883,1.263h10.5107c3.699,0,7.0823-.6766,7.4883-1.5337s-2.2555-1.4435-5.9545-1.3533Z" transform="translate(-6 -31.0495)"/><path class="cls-15" d="M430.4421,175.4473c-3.7442,0-6.4959.7669-6.18,1.4435a13.1273,13.1273,0,0,0,7.3079,1.2631h4.15c3.6991,0,6.9921-.6766,7.3079-1.5337s-2.4811-1.3985-6.18-1.3082Z" transform="translate(-6 -31.0495)"/><path class="cls-15" d="M566.0885,175.4473c-3.699,0-6.4959.7669-6.18,1.4435a13.5327,13.5327,0,0,0,7.3079,1.2631h4.15c3.7442,0,7.0372-.6766,7.353-1.5337s-2.4811-1.3985-6.18-1.3082Z" transform="translate(-6 -31.0495)"/><path class="cls-15" d="M662.67,175.4473c-3.6991,0-6.4959.7669-6.2252,1.4435a12.9008,12.9008,0,0,0,7.2176,1.2631h2.1653c3.7442,0,6.9921-.6766,7.2628-1.5337s-2.5262-1.3985-6.2253-1.3082Z" transform="translate(-6 -31.0495)"/><path class="cls-15" d="M710.8021,175.5375c-3.7441,0-6.27.6767-5.6838,1.3533a16.7348,16.7348,0,0,0,7.8492,1.2631h20.3446a13.8939,13.8939,0,0,0,7.8492-1.5337c.5865-.812-1.94-1.4436-5.6838-1.3985Z" transform="translate(-6 -31.0495)"/><path class="cls-15" d="M770.1671,175.4022c-3.6991,0-6.541.812-6.3154,1.4887a12.9018,12.9018,0,0,0,7.2177,1.263h.3609c3.7441,0,6.9469-.6766,7.2176-1.5337s-2.6164-1.3984-6.3154-1.2631Z" transform="translate(-6 -31.0495)"/><path class="cls-15" d="M791.5945,175.4924c-3.6991,0-6.4508.7218-6.0448,1.3985a14.03,14.03,0,0,0,7.4432,1.263h8.3905c3.699,0,7.0372-.6766,7.4431-1.5337s-2.3457-1.4435-6.0447-1.3533Z" transform="translate(-6 -31.0495)"/><path class="cls-15" d="M838.96,175.4473c-3.7442,0-6.4959.7669-6.18,1.4435a13.7591,13.7591,0,0,0,7.353,1.2631h4.917c3.6991,0,6.9921-.6766,7.353-1.5337s-2.4359-1.4436-6.18-1.3533Z" transform="translate(-6 -31.0495)"/><path class="cls-15" d="M867.109,175.4473c-3.6991,0-6.4959.7669-6.2252,1.4435a12.9006,12.9006,0,0,0,7.2176,1.2631h1.7142c3.6991,0,6.947-.6766,7.2177-1.5337s-2.5262-1.3985-6.2252-1.3082Z" transform="translate(-6 -31.0495)"/><path class="cls-15" d="M906.9864,175.5375c-3.7441,0-6.18.6767-5.4132,1.3533a18.99,18.99,0,0,0,8.0747,1.2631h28.3743a15.5179,15.5179,0,0,0,8.0747-1.5337c.7669-.812-1.6691-1.4436-5.4132-1.4436Z" transform="translate(-6 -31.0495)"/><path class="cls-15" d="M974.6067,175.5375c-3.6991,0-6.135.6767-5.4132,1.3533a19.1709,19.1709,0,0,0,8.12,1.2631h28.3292a15.7889,15.7889,0,0,0,8.12-1.5337c.7218-.812-1.7142-1.4436-5.4132-1.4436Z" transform="translate(-6 -31.0495)"/><path class="cls-15" d="M1145.62,175.5375c-3.699,0-6.135.6767-5.4132,1.3533a18.99,18.99,0,0,0,8.0747,1.2631h28.3744a15.5183,15.5183,0,0,0,8.0748-1.5337c.7669-.812-1.6691-1.4436-5.3682-1.4436Z" transform="translate(-6 -31.0495)"/><path class="cls-15" d="M1082.8261,61.6342c-3.6991,0-6.4056.6767-5.9546,1.3533a14.2543,14.2543,0,0,0,7.4883,1.2631h10.0145a12.4959,12.4959,0,0,0,7.5334-1.4886c.406-.812-2.3006-1.4435-6-1.3984Z" transform="translate(-6 -31.0495)"/><path class="cls-15" d="M1029.4607,61.6342c-3.6991,0-6.3605.6767-5.8643,1.3533a14.7509,14.7509,0,0,0,7.6236,1.2631h13.5331a13.5324,13.5324,0,0,0,7.804-1.4886c.4512-.812-2.1652-1.4435-5.9094-1.3984Z" transform="translate(-6 -31.0495)"/><path class="cls-15" d="M1002.44,61.5891c-3.7442,0-6.4959.7218-6.18,1.3984a13.7589,13.7589,0,0,0,7.353,1.2631h5.4132c3.6991,0,6.9921-.6766,7.353-1.4886s-2.4359-1.4435-6.135-1.3533Z" transform="translate(-6 -31.0495)"/><path class="cls-15" d="M1011.4617,116.8942c-3.7441,0-6.4056.6767-6,1.3534a14.8871,14.8871,0,0,0,7.5334,1.263h10.6911a12.4951,12.4951,0,0,0,7.5334-1.4886c.4512-.8571-2.2555-1.4886-5.9545-1.3984Z" transform="translate(-6 -31.0495)"/><path class="cls-15" d="M846.4485,57.845c-3.6991,0-6.4507.7217-6.135,1.3984a13.7591,13.7591,0,0,0,7.353,1.2631h5.3681c3.6991,0,7.0372-.6767,7.353-1.4887s-2.436-1.3984-6.3154-1.3984Z" transform="translate(-6 -31.0495)"/><path class="cls-15" d="M884.7922,57.845c-3.6991,0-6.4959.7217-6.135,1.3984a13.7591,13.7591,0,0,0,7.353,1.2631h5.3681c3.6991,0,7.0372-.6767,7.353-1.4887s-2.4359-1.4435-6.135-1.3533Z" transform="translate(-6 -31.0495)"/><path class="cls-15" d="M859.9365,82.1594c-2.842,0-5.0523.812-4.917,1.5337s2.3908,1.218,4.917,1.218,4.511-.6766,4.917-1.4886S862.8235,82.024,859.9365,82.1594Z" transform="translate(-6 -31.0495)"/><path class="cls-15" d="M873.65,74.2651c-3.5637,0-6.3154.812-6.135,1.5337s2.9773,1.2631,6.135,1.2631,5.9546-.6766,6.135-1.5337S877.2588,74.13,873.65,74.2651Z" transform="translate(-6 -31.0495)"/><path class="cls-15" d="M703.0432,75.6635c-3.5637,0-6.3606.812-6.135,1.4886s2.9321,1.2631,6.135,1.2631,5.9545-.6766,6.1349-1.4886S706.652,75.6635,703.0432,75.6635Z" transform="translate(-6 -31.0495)"/><path class="cls-15" d="M746.1234,115.6763c-3.7441,0-6.5409.7669-6.3154,1.4435a12.812,12.812,0,0,0,7.2177,1.2631h.4962c3.6991,0,6.9469-.6767,7.1725-1.5338s-2.5713-1.3984-6.3154-1.263Z" transform="translate(-6 -31.0495)"/><path class="cls-15" d="M716.0348,130.0213c-3.699,0-6.4056.6767-6.0447,1.3984a14.6153,14.6153,0,0,0,7.4432,1.218h8.1649c3.6991,0,7.0372-.6766,7.4432-1.4886s-2.3458-1.4435-6.0448-1.3533Z" transform="translate(-6 -31.0495)"/><path class="cls-15" d="M1141.4694,133.0437c-3.6991,0-6.4507.6767-6.0448,1.3533a13.5332,13.5332,0,0,0,7.4432,1.2631h8.12c3.7441,0,7.0823-.6767,7.4883-1.4886s-2.3458-1.4436-6.09-1.3533Z" transform="translate(-6 -31.0495)"/><path class="cls-15" d="M433.8253,144.231c-3.7441,0-6.541.7669-6.2252,1.4436a13.2632,13.2632,0,0,0,7.2628,1.2631H437.66c3.7442,0,6.9921-.6767,7.3079-1.4887s-2.5262-1.4435-6.2252-1.3533Z" transform="translate(-6 -31.0495)"/><path class="cls-15" d="M373.6934,132.2317c-3.7441,0-6.5409.7218-6.2252,1.4436s3.5637,1.2179,7.2628,1.2179h2.7968c3.7442,0,6.9921-.6766,7.3079-1.4886s-2.5262-1.3984-6.2252-1.3082Z" transform="translate(-6 -31.0495)"/><path class="cls-15" d="M287.984,131.104c-3.6991,0-6.4959.7668-6.2252,1.4435a13.5333,13.5333,0,0,0,7.2627,1.2631h2.842c3.699,0,6.992-.6767,7.2627-1.5338s-2.5262-1.3984-6.2252-1.3082Z" transform="translate(-6 -31.0495)"/><path class="cls-15" d="M158.3372,85.272c-3.699,0-6.4056.6766-6.0448,1.3533a14.2552,14.2552,0,0,0,7.4883,1.2631h8.6161c3.699,0,7.0823-.6316,7.4883-1.4887s-2.3457-1.4435-6.0448-1.3533Z" transform="translate(-6 -31.0495)"/><path class="cls-15" d="M401.6617,63.4837c-3.699-.3608-6.5409,0-6.3605.5865a14.3906,14.3906,0,0,0,7.0372,2.2555l2.7968.3609c3.6991.4962,6.9921.2706,7.3981-.4962s-2.3006-1.7593-5.9546-2.1653Z" transform="translate(-6 -31.0495)"/><path class="cls-15" d="M770.528,139.3591c-3.6991,0-6.4959.7669-6.2252,1.4436a13.5333,13.5333,0,0,0,7.3078,1.2631h2.7968c3.6991,0,6.9921-.6767,7.2628-1.5338s-2.4811-1.3984-6.2253-1.3082Z" transform="translate(-6 -31.0495)"/><path class="cls-15" d="M878.7925,128.8485c-3.7441,0-6.5409.7217-6.2252,1.4435s3.5637,1.218,7.2627,1.218h2.7969c3.7441,0,6.9921-.6767,7.3078-1.4887s-2.5262-1.3984-6.2252-1.3082Z" transform="translate(-6 -31.0495)"/><path class="cls-15" d="M618.6871,60.5516c-3.6991,0-6,.6315-5.0975,1.3533a21.3375,21.3375,0,0,0,8.39,1.218h37.4415a18.0441,18.0441,0,0,0,8.39-1.4887c.9022-.812-1.3984-1.4886-5.0975-1.4435Z" transform="translate(-6 -31.0495)"/><path class="cls-15" d="M489.8071,60.9576c-3.699,0-6,.6315-5.0523,1.3082a22.2835,22.2835,0,0,0,8.4356,1.2179h39.11a18.0438,18.0438,0,0,0,8.4357-1.3533c.9473-.8119-1.3534-1.4435-5.0524-1.4435Z" transform="translate(-6 -31.0495)"/><path class="cls-15" d="M483.0406,115.7665c-3.6991,0-6.3155.6766-5.8192,1.3533a15.427,15.427,0,0,0,7.6687,1.2631H500.002a12.9463,12.9463,0,0,0,7.6687-1.5338c.5414-.8119-2.12-1.4435-5.8192-1.3533Z" transform="translate(-6 -31.0495)"/><path class="cls-15" d="M517.595,115.7665c-3.699,0-6.3605.6766-5.8643,1.3533a15.2471,15.2471,0,0,0,7.6236,1.2631h13.5331c3.7441,0,7.1725-.6767,7.6236-1.5338s-2.1653-1.4435-5.8643-1.3533Z" transform="translate(-6 -31.0495)"/><path class="cls-15" d="M591.666,168.2748c-3.7442,0-6.5861.7669-6.3606,1.4435s3.3382,1.2631,6.9019,1.2631,6.7215-.6766,6.9469-1.4886-2.6164-1.3984-6.3605-1.2631Z" transform="translate(-6 -31.0495)"/><path class="cls-15" d="M581.4711,80.1745c-3.6991-.4511-6.4959,0-6.27.5414a13.85,13.85,0,0,0,7.1274,2.2555l5.8643.8119c3.6539.4963,7.0372.2707,7.4883-.4962s-2.1653-1.7593-5.8643-2.1653Z" transform="translate(-6 -31.0495)"/><path class="cls-15" d="M904.6858,139.5847c-3.699-.406-6.4959,0-6.27.5413a13.8483,13.8483,0,0,0,7.1274,2.2555l5.8192.812c3.6991.4962,7.0824.3158,7.5334-.4962s-2.21-1.7142-5.9094-2.1653Z" transform="translate(-6 -31.0495)"/><path class="cls-15" d="M892.6414,82.1594c-2.6615,0-4.511.812-4.511,1.5337s2.21,1.218,4.511,1.218,4.511-.6766,4.511-1.4886S895.3029,82.024,892.6414,82.1594Z" transform="translate(-6 -31.0495)"/><path class="cls-15" d="M1045.6553,116.8942c-3.6991,0-6.3606.6767-5.9095,1.3534a15.7439,15.7439,0,0,0,7.6237,1.263h13.533a13.217,13.217,0,0,0,7.6237-1.4886c.4962-.8571-2.1653-1.4886-5.9094-1.3984Z" transform="translate(-6 -31.0495)"/><path class="cls-15" d="M1169.8437,61.5891c-3.6991,0-6.4959.7218-6.1349,1.3984a13.7587,13.7587,0,0,0,7.353,1.2631h5.8192c3.7441,0,7.0372-.6766,7.3982-1.4886s-2.436-1.4435-6.135-1.3533Z" transform="translate(-6 -31.0495)"/><path class="cls-15" d="M613.4542,175.5375c-3.699,0-6.2252.6767-5.5936,1.3533a17.7267,17.7267,0,0,0,7.9393,1.2631h23.5025a14.6158,14.6158,0,0,0,7.9394-1.5337c.6315-.812-1.85-1.4436-5.5937-1.3985Z" transform="translate(-6 -31.0495)"/><path class="cls-15" d="M455.6136,175.5827c-3.6991,0-6.0448.6315-5.1877,1.3082a20.0286,20.0286,0,0,0,8.3,1.263H493.867a16.4649,16.4649,0,0,0,8.3-1.5337c.8571-.812-1.4887-1.4887-5.1877-1.4435Z" transform="translate(-6 -31.0495)"/><path class="cls-15" d="M514.2568,175.4924c-3.7441,0-6.4056.7218-5.9094,1.3985a15.1566,15.1566,0,0,0,7.5785,1.263H529.459c3.699,0,7.1274-.6766,7.5785-1.5337s-2.1653-1.4435-5.8643-1.3984Z" transform="translate(-6 -31.0495)"/><path class="cls-15" d="M235.25,175.8533c-3.699,0-6.4958.7218-6.135,1.3984a13.7591,13.7591,0,0,0,7.353,1.2631h5.1426c3.699,0,6.9921-.6767,7.353-1.4886s-2.436-1.4436-6.18-1.3533Z" transform="translate(-6 -31.0495)"/><path class="cls-15" d="M794.7071,88.1139c-3.6991,0-6.5861.6767-6.3606,1.218a14.2092,14.2092,0,0,0,6.8568.9924c3.5186,0,6.5861-.5413,6.8116-1.2179s-2.6164-1.0827-6.3605-.9925Z" transform="translate(-6 -31.0495)"/><path class="cls-15" d="M742.3341,60.5967c-3.6991,0-6.4959.7218-6.18,1.4435s3.5637,1.218,7.2628,1.218h2.9321c3.7442,0,6.9921-.6767,7.3079-1.4886s-2.5262-1.4436-6.2253-1.3082Z" transform="translate(-6 -31.0495)"/></svg>